<mxfile host="app.diagrams.net" modified="2022-06-20T13:23:49.318Z" agent="5.0 (Windows NT 10.0; Win64; x64) AppleWebKit/537.36 (KHTML, like Gecko) Chrome/102.0.5005.124 Safari/537.36 Edg/102.0.1245.44" etag="LXp0lnF8TYwCeXFM5K71" version="20.0.1" type="github">
  <diagram id="ptPFWT4yLGFfOJR_zIkO" name="Page-1">
    <mxGraphModel dx="805" dy="579" grid="1" gridSize="10" guides="1" tooltips="1" connect="1" arrows="1" fold="1" page="1" pageScale="1" pageWidth="827" pageHeight="1169" math="0" shadow="0">
      <root>
        <mxCell id="0" />
        <mxCell id="1" parent="0" />
        <mxCell id="vEVlzVkFCPzappx3WJY3-1" value="" style="rounded=1;whiteSpace=wrap;html=1;strokeWidth=2;fillWeight=4;hachureGap=8;hachureAngle=45;fillColor=#fff2cc;sketch=1;strokeColor=#d6b656;" vertex="1" parent="1">
          <mxGeometry x="230" y="230" width="180" height="90" as="geometry" />
        </mxCell>
      </root>
    </mxGraphModel>
  </diagram>
</mxfile>
